<svg width="36" height="36" viewBox="0 0 36 36" fill="none" xmlns="http://www.w3.org/2000/svg">
<path d="M29 18C28.2044 18 27.4413 17.6839 26.8787 17.1213C26.3161 16.5587 26 15.7956 26 15C26 14.2044 26.3161 13.4413 26.8787 12.8787C27.4413 12.3161 28.2044 12 29 12C29.7956 12 30.5587 12.3161 31.1213 12.8787C31.6839 13.4413 32 14.2044 32 15C32 15.7956 31.6839 16.5587 31.1213 17.1213C30.5587 17.6839 29.7956 18 29 18ZM23 10C22.2044 10 21.4413 9.68393 20.8787 9.12132C20.3161 8.55871 20 7.79565 20 7C20 6.20435 20.3161 5.44129 20.8787 4.87868C21.4413 4.31607 22.2044 4 23 4C23.7956 4 24.5587 4.31607 25.1213 4.87868C25.6839 5.44129 26 6.20435 26 7C26 7.79565 25.6839 8.55871 25.1213 9.12132C24.5587 9.68393 23.7956 10 23 10ZM13 10C12.2044 10 11.4413 9.68393 10.8787 9.12132C10.3161 8.55871 10 7.79565 10 7C10 6.20435 10.3161 5.44129 10.8787 4.87868C11.4413 4.31607 12.2044 4 13 4C13.7956 4 14.5587 4.31607 15.1213 4.87868C15.6839 5.44129 16 6.20435 16 7C16 7.79565 15.6839 8.55871 15.1213 9.12132C14.5587 9.68393 13.7956 10 13 10ZM7 18C6.20435 18 5.44129 17.6839 4.87868 17.1213C4.31607 16.5587 4 15.7956 4 15C4 14.2044 4.31607 13.4413 4.87868 12.8787C5.44129 12.3161 6.20435 12 7 12C7.79565 12 8.55871 12.3161 9.12132 12.8787C9.68393 13.4413 10 14.2044 10 15C10 15.7956 9.68393 16.5587 9.12132 17.1213C8.55871 17.6839 7.79565 18 7 18ZM18 0C13.2261 0 8.64773 1.89642 5.27208 5.27208C1.89642 8.64773 0 13.2261 0 18C0 22.7739 1.89642 27.3523 5.27208 30.7279C8.64773 34.1036 13.2261 36 18 36C18.7956 36 19.5587 35.6839 20.1213 35.1213C20.6839 34.5587 21 33.7957 21 33C21 32.22 20.7 31.52 20.22 31C19.76 30.46 19.46 29.76 19.46 29C19.46 28.2044 19.7761 27.4413 20.3387 26.8787C20.9013 26.3161 21.6644 26 22.46 26H26C28.6522 26 31.1957 24.9464 33.0711 23.0711C34.9464 21.1957 36 18.6522 36 16C36 7.16 27.94 0 18 0Z" fill="#EF6292"/>
</svg>
