<svg width="44" height="44" viewBox="0 0 44 44" fill="none" xmlns="http://www.w3.org/2000/svg">
<path d="M38 20H44V24H38V20ZM0 20H6V24H0V20ZM24 0V6H20V0H24ZM7.84 5L12.1 9.28L9.26 12.1L5 7.86L7.84 5ZM31.9 9.26L36.14 5L39 7.86L34.74 12.1L31.9 9.26ZM22 10C25.1826 10 28.2348 11.2643 30.4853 13.5147C32.7357 15.7652 34 18.8174 34 22C34 26.44 31.58 30.32 28 32.4V36C28 36.5304 27.7893 37.0391 27.4142 37.4142C27.0391 37.7893 26.5304 38 26 38H18C17.4696 38 16.9609 37.7893 16.5858 37.4142C16.2107 37.0391 16 36.5304 16 36V32.4C12.42 30.32 10 26.44 10 22C10 18.8174 11.2643 15.7652 13.5147 13.5147C15.7652 11.2643 18.8174 10 22 10ZM26 40V42C26 42.5304 25.7893 43.0391 25.4142 43.4142C25.0391 43.7893 24.5304 44 24 44H20C19.4696 44 18.9609 43.7893 18.5858 43.4142C18.2107 43.0391 18 42.5304 18 42V40H26ZM20 34H24V29.74C27.46 28.86 30 25.72 30 22C30 19.8783 29.1571 17.8434 27.6569 16.3431C26.1566 14.8429 24.1217 14 22 14C19.8783 14 17.8434 14.8429 16.3431 16.3431C14.8429 17.8434 14 19.8783 14 22C14 25.72 16.54 28.86 20 29.74V34Z" fill="#65B168"/>
</svg>
