<svg width="43" height="43" viewBox="0 0 43 43" fill="none" xmlns="http://www.w3.org/2000/svg">
<path d="M13.005 7.2L8.005 10L10.805 5L8.005 0L13.005 2.8L18.005 0L15.205 5L18.005 10L13.005 7.2ZM37.005 26.8L42.005 24L39.205 29L42.005 34L37.005 31.2L32.005 34L34.805 29L32.005 24L37.005 26.8ZM42.005 0L39.205 5L42.005 10L37.005 7.2L32.005 10L34.805 5L32.005 0L37.005 2.8L42.005 0ZM24.685 21.56L29.565 16.68L25.325 12.44L20.445 17.32L24.685 21.56ZM26.745 10.58L31.425 15.26C32.205 16 32.205 17.3 31.425 18.08L8.085 41.42C7.305 42.2 6.005 42.2 5.265 41.42L0.585 36.74C-0.195 36 -0.195 34.7 0.585 33.92L23.925 10.58C24.705 9.8 26.005 9.8 26.745 10.58Z" fill="#7985CB"/>
</svg>
